<?xml version="1.0" encoding="UTF-8"?>
<svg version="1.1" xmlns="http://www.w3.org/2000/svg" width="72" height="72">
<path d="M0 0 C1.63630371 -0.00929787 1.63630371 -0.00929787 3.30566406 -0.01878357 C5.60871489 -0.02587764 7.91181704 -0.02271501 10.21484375 -0.01000977 C13.73793868 0.00385877 17.25837918 -0.03022774 20.78125 -0.06835938 C23.02083398 -0.06931056 25.26042129 -0.0674518 27.5 -0.0625 C28.55219727 -0.07575821 29.60439453 -0.08901642 30.68847656 -0.10267639 C35.30278381 -0.04393554 37.97430246 0.06558717 41.91162109 2.60766602 C44.2053062 6.29918923 44.47311649 9.31029897 44.4140625 13.53515625 C44.41884613 14.29308472 44.42362976 15.05101318 44.42855835 15.83190918 C44.43194946 17.42881352 44.422802 19.02578803 44.40185547 20.62255859 C44.37507204 23.05985027 44.40162307 25.49253817 44.43359375 27.9296875 C44.4302895 29.4856872 44.42388295 31.04168404 44.4140625 32.59765625 C44.42924423 33.68379211 44.42924423 33.68379211 44.44473267 34.79187012 C44.3548709 38.69296181 43.84935147 40.43964533 41.41552734 43.54492188 C38.24778879 45.94727352 36.63352801 46.01797927 32.75 45.56640625 C32.79640625 46.30246094 32.8428125 47.03851563 32.890625 47.796875 C33.18799253 55.83641869 33.18799253 55.83641869 30.875 59.69140625 C27.76892229 62.43206306 26.06614332 62.6992672 22.01245117 62.75927734 C21.02770309 62.77534027 20.04295502 62.7914032 19.02836609 62.80795288 C14.52274219 62.8523642 10.01726614 62.89346593 5.51147461 62.91650391 C3.13409642 62.93306874 0.75676814 62.96036537 -1.62036133 62.99853516 C-5.04534787 63.0532588 -8.46916659 63.07517167 -11.89453125 63.08984375 C-12.95613968 63.11251312 -14.01774811 63.1351825 -15.11152649 63.15853882 C-19.7583487 63.145218 -22.44637013 63.08250791 -26.41821289 60.53173828 C-28.70111015 56.8361405 -28.9731013 53.82142712 -28.9140625 49.59765625 C-28.91884613 48.83972778 -28.92362976 48.08179932 -28.92855835 47.30090332 C-28.93194946 45.70399898 -28.922802 44.10702447 -28.90185547 42.51025391 C-28.87507204 40.07296223 -28.90162307 37.64027433 -28.93359375 35.203125 C-28.9302895 33.6471253 -28.92388295 32.09112846 -28.9140625 30.53515625 C-28.92418365 29.81106567 -28.93430481 29.0869751 -28.94473267 28.34094238 C-28.86298807 24.79223458 -28.29442987 22.6385356 -26.42749023 19.60766602 C-21.64909952 16.53796761 -17.31505587 16.86895757 -11.74609375 16.9375 C-10.63065689 16.93508804 -9.51522003 16.93267609 -8.36598206 16.93019104 C-6.01161132 16.93116921 -3.6572175 16.94455537 -1.30297852 16.96948242 C2.30336448 17.00381927 5.90726127 16.99013077 9.51367188 16.97070312 C11.80209378 16.9776007 14.09050935 16.98727227 16.37890625 17 C17.45813858 16.99504013 18.53737091 16.99008026 19.64930725 16.98497009 C20.65392502 17.00080643 21.65854279 17.01664276 22.69360352 17.03295898 C24.01667259 17.04225685 24.01667259 17.04225685 25.36647034 17.05174255 C28.51426399 17.73142997 29.71523175 19.12947363 31.75 21.56640625 C33.34412284 24.75465193 32.85174735 28.19537287 32.8125 31.69140625 C32.80798828 32.44550781 32.80347656 33.19960938 32.79882812 33.9765625 C32.78703499 35.83987752 32.76909942 37.7031518 32.75 39.56640625 C34.73 39.07140625 34.73 39.07140625 36.75 38.56640625 C36.75 28.33640625 36.75 18.10640625 36.75 7.56640625 C21.24 7.56640625 5.73 7.56640625 -10.25 7.56640625 C-10.91 8.88640625 -11.57 10.20640625 -12.25 11.56640625 C-13.9 11.23640625 -15.55 10.90640625 -17.25 10.56640625 C-17.01254376 7.08371471 -16.69465698 5.08809088 -14.40234375 2.39868164 C-9.69577554 -0.33697468 -5.35451766 -0.02524024 0 0 Z M-17.25 24.56640625 C-17.25 26.21640625 -17.25 27.86640625 -17.25 29.56640625 C-2.73 29.23640625 11.79 28.90640625 26.75 28.56640625 C26.255 26.09140625 26.255 26.09140625 25.75 23.56640625 C19.78686834 23.54176051 13.82376605 23.52357225 7.8605957 23.51147461 C5.83031702 23.50643347 3.80004198 23.49960068 1.76977539 23.4909668 C-1.14177347 23.47889158 -4.0532745 23.47317591 -6.96484375 23.46875 C-7.8783812 23.46358871 -8.79191864 23.45842743 -9.73313904 23.45310974 C-13.81390235 23.03283786 -13.81390235 23.03283786 -17.25 24.56640625 Z M-17.25 32.56640625 C-17.27887236 36.37889051 -17.29675492 40.19134695 -17.3125 44.00390625 C-17.32087891 45.09251953 -17.32925781 46.18113281 -17.33789062 47.30273438 C-17.34111328 48.33720703 -17.34433594 49.37167969 -17.34765625 50.4375 C-17.35289307 51.3958374 -17.35812988 52.3541748 -17.36352539 53.34155273 C-17.5005313 55.53925964 -17.5005313 55.53925964 -16.25 56.56640625 C-13.15918535 56.66757545 -10.09117445 56.70609183 -7 56.69921875 C-6.07155273 56.70017548 -5.14310547 56.7011322 -4.18652344 56.70211792 C-2.21940035 56.7027998 -0.25227504 56.70094497 1.71484375 56.69677734 C4.73703026 56.6914292 7.75906815 56.69672207 10.78125 56.703125 C12.68750033 56.70246422 14.59375057 56.70118306 16.5 56.69921875 C17.86560059 56.7022551 17.86560059 56.7022551 19.25878906 56.70535278 C23.32663678 57.10531957 23.32663678 57.10531957 26.75 55.56640625 C26.83685603 54.0046788 26.85702219 52.43911281 26.84765625 50.875 C26.84443359 49.93076172 26.84121094 48.98652344 26.83789062 48.01367188 C26.82951172 47.02044922 26.82113281 46.02722656 26.8125 45.00390625 C26.80798828 44.00681641 26.80347656 43.00972656 26.79882812 41.98242188 C26.78700007 39.51035776 26.77051849 37.03841107 26.75 34.56640625 C25.48816895 34.5413501 24.22633789 34.51629395 22.92626953 34.49047852 C18.25591431 34.39648519 13.58571063 34.29624494 8.91552734 34.1940918 C6.89212584 34.1507123 4.86868701 34.10903947 2.84521484 34.0690918 C-0.05903384 34.01146217 -2.96309411 33.94774685 -5.8671875 33.8828125 C-7.22975174 33.85774376 -7.22975174 33.85774376 -8.61984253 33.83216858 C-9.46056305 33.81222336 -10.30128357 33.79227814 -11.16748047 33.77172852 C-11.90916473 33.75618423 -12.650849 33.74063995 -13.41500854 33.72462463 C-15.25 33.56640625 -15.25 33.56640625 -17.25 32.56640625 Z " fill="#0022C4" transform="translate(28.25,4.43359375)"/>
<path d="M0 0 C1.98 0 3.96 0 6 0 C6 10.89 6 21.78 6 33 C4.02 33 2.04 33 0 33 C0 22.11 0 11.22 0 0 Z " fill="#CDE0F1" transform="translate(6,28)"/>
<path d="M0 0 C1.93166016 0.01740234 1.93166016 0.01740234 3.90234375 0.03515625 C5.19269531 0.04417969 6.48304687 0.05320313 7.8125 0.0625 C8.81152344 0.07410156 9.81054688 0.08570313 10.83984375 0.09765625 C11.49984375 1.41765625 12.15984375 2.73765625 12.83984375 4.09765625 C10.83984375 6.09765625 10.83984375 6.09765625 7.58203125 6.29296875 C6.30585937 6.26976562 5.0296875 6.2465625 3.71484375 6.22265625 C1.79285156 6.19558594 1.79285156 6.19558594 -0.16796875 6.16796875 C-1.64910156 6.13316406 -1.64910156 6.13316406 -3.16015625 6.09765625 C-3.54234392 4.44150968 -3.87410727 2.77308601 -4.16015625 1.09765625 C-3.16015625 0.09765625 -3.16015625 0.09765625 0 0 Z " fill="#FF5CF4" transform="translate(37.16015625,49.90234375)"/>
</svg>
