<?xml version="1.0" encoding="UTF-8"?>
<svg version="1.1" xmlns="http://www.w3.org/2000/svg" width="36" height="36">
<path d="M0 0 C1.15757813 -0.00257812 2.31515625 -0.00515625 3.5078125 -0.0078125 C4.72210937 -0.00007812 5.93640625 0.00765625 7.1875 0.015625 C8.40179687 0.00789062 9.61609375 0.00015625 10.8671875 -0.0078125 C12.60355469 -0.00394531 12.60355469 -0.00394531 14.375 0 C15.44105469 0.00225586 16.50710937 0.00451172 17.60546875 0.00683594 C20.1875 0.265625 20.1875 0.265625 22.1875 2.265625 C22.41455078 4.32861328 22.41455078 4.32861328 22.3828125 6.8359375 C22.37636719 7.73183594 22.36992188 8.62773437 22.36328125 9.55078125 C22.34652344 10.48792969 22.32976563 11.42507813 22.3125 12.390625 C22.30347656 13.33550781 22.29445312 14.28039063 22.28515625 15.25390625 C22.26154522 17.59139792 22.22861516 19.92838623 22.1875 22.265625 C20.5375 22.595625 18.8875 22.925625 17.1875 23.265625 C17.249375 24.19375 17.31125 25.121875 17.375 26.078125 C17.1875 29.265625 17.1875 29.265625 16.04516602 30.94213867 C13.41560755 32.81555652 11.48492502 32.63791973 8.27734375 32.62890625 C7.12298828 32.62826172 5.96863281 32.62761719 4.77929688 32.62695312 C3.57337891 32.61083984 2.36746094 32.59472656 1.125 32.578125 C-0.68967773 32.58295898 -0.68967773 32.58295898 -2.54101562 32.58789062 C-11.54560075 32.53252425 -11.54560075 32.53252425 -13.8125 30.265625 C-14.05541992 28.21850586 -14.05541992 28.21850586 -14.04296875 25.73046875 C-14.04103516 24.83908203 -14.03910156 23.94769531 -14.03710938 23.02929688 C-14.02486328 22.09666016 -14.01261719 21.16402344 -14 20.203125 C-13.99935547 19.26662109 -13.99871094 18.33011719 -13.99804688 17.36523438 C-13.95269224 10.40581724 -13.95269224 10.40581724 -12.8125 9.265625 C-8.17295946 8.98374184 -3.5220829 9.0338043 1.125 9.015625 C2.43919922 8.995 3.75339844 8.974375 5.10742188 8.953125 C6.35974609 8.94796875 7.61207031 8.9428125 8.90234375 8.9375 C10.05855225 8.9281543 11.21476074 8.91880859 12.40600586 8.90917969 C13.32389893 9.02680664 14.24179199 9.14443359 15.1875 9.265625 C17.1875 12.265625 17.1875 12.265625 18.1875 19.265625 C18.5175 14.315625 18.8475 9.365625 19.1875 4.265625 C11.2675 4.265625 3.3475 4.265625 -4.8125 4.265625 C-4.8125 4.925625 -4.8125 5.585625 -4.8125 6.265625 C-6.1325 6.265625 -7.4525 6.265625 -8.8125 6.265625 C-7.66990598 0.55265488 -5.59150729 0.01183209 0 0 Z M-7.8125 12.265625 C-7.8125 12.925625 -7.8125 13.585625 -7.8125 14.265625 C-0.8825 14.265625 6.0475 14.265625 13.1875 14.265625 C13.1875 13.605625 13.1875 12.945625 13.1875 12.265625 C6.2575 12.265625 -0.6725 12.265625 -7.8125 12.265625 Z M-7.8125 18.265625 C-7.8125 21.565625 -7.8125 24.865625 -7.8125 28.265625 C-0.8825 28.265625 6.0475 28.265625 13.1875 28.265625 C13.1875 24.965625 13.1875 21.665625 13.1875 18.265625 C6.2575 18.265625 -0.6725 18.265625 -7.8125 18.265625 Z " fill="#0D29A7" transform="translate(13.8125,1.734375)"/>
<path d="M0 0 C2.97 0 5.94 0 9 0 C9 0.99 9 1.98 9 3 C6.03 3 3.06 3 0 3 C0 2.01 0 1.02 0 0 Z " fill="#DE50D4" transform="translate(16,25)"/>
</svg>
